{"accessors":[{"bufferView":0,"byteOffset":0,"componentType":5126,"count":31,"max":[6.039968013763428,6.0081048011779785,1.531182050704956],"min":[-10.080273628234863,-6.688741207122803,-2.465404987335205],"type":"VEC3"},{"bufferView":1,"byteOffset":0,"componentType":5125,"count":90,"type":"SCALAR"},{"bufferView":2,"byteOffset":0,"componentType":5126,"count":50,"max":[-8.957307815551758,-5.476616859436035,-0.9790064096450806],"min":[-10.517191886901855,-7.036501407623291,-2.5790064334869385],"type":"VEC3"},{"bufferView":3,"byteOffset":0,"componentType":5125,"count":288,"type":"SCALAR"},{"bufferView":4,"byteOffset":0,"componentType":5126,"count":50,"max":[6.819910526275635,6.7880473136901855,1.039293646812439],"min":[5.260025978088379,5.22816276550293,-0.560706377029419],"type":"VEC3"},{"bufferView":5,"byteOffset":0,"componentType":5125,"count":288,"type":"SCALAR"}],"asset":{"generator":"VTK","version":"2.0"},"bufferViews":[{"buffer":0,"byteLength":372,"byteOffset":0,"target":34962},{"buffer":1,"byteLength":360,"byteOffset":0,"target":34963},{"buffer":2,"byteLength":600,"byteOffset":0,"target":34962},{"buffer":3,"byteLength":1152,"byteOffset":0,"target":34963},{"buffer":4,"byteLength":600,"byteOffset":0,"target":34962},{"buffer":5,"byteLength":1152,"byteOffset":0,"target":34963}],"buffers":[{"byteLength":372,"uri":"data:application/octet-stream;base64,"},{"byteLength":360,"uri":"data:application/octet-stream;base64,"},{"byteLength":600,"uri":"data:application/octet-stream;base64,"},{"byteLength":1152,"uri":"data:application/octet-stream;base64,"},{"byteLength":600,"uri":"data:application/octet-stream;base64,"},{"byteLength":1152,"uri":"data:application/octet-stream;base64,"}],"cameras":[{"perspective":{"aspectRatio":1.3333333333333333,"yfov":0.5235987755982988,"zfar":66.14175551230349,"znear":25.716611114487712},"type":"perspective"}],"materials":[{"pbrMetallicRoughness":{"baseColorFactor":[0.0,1.0,1.0,1.0],"metallicFactor":0.0,"roughnessFactor":1.0}},{"pbrMetallicRoughness":{"baseColorFactor":[1.0,1.0,0.0,1.0],"metallicFactor":0.0,"roughnessFactor":1.0}},{"pbrMetallicRoughness":{"baseColorFactor":[1.0,0.0,1.0,1.0],"metallicFactor":0.0,"roughnessFactor":1.0}}],"meshes":[{"name":"mesh0","primitives":[{"attributes":{"POSITION":0},"indices":1,"material":0,"mode":4}]},{"name":"mesh1","primitives":[{"attributes":{"POSITION":2},"indices":3,"material":1,"mode":4}]},{"name":"mesh2","primitives":[{"attributes":{"POSITION":4},"indices":5,"material":2,"mode":4}]}],"nodes":[{"mesh":0,"name":"mesh0"},{"mesh":1,"name":"mesh1"},{"mesh":2,"name":"mesh2"},{"camera":0,"matrix":[0.8660254037844388,-0.0,-0.5,0.0,-0.25,0.8660254037844388,-0.4330127018922194,0.0,0.4330127018922193,0.5,0.7500000000000001,-0.0,17.01636766977622,21.659208251410668,32.15124075617485,1.0],"name":"Camera Node"},{"children":[0,1,2,3],"name":"Renderer Node"}],"scene":0,"scenes":[{"name":"Layer 0","nodes":[4]}]}